<svg width="25" height="25" viewBox="0 0 25 25" fill="none" xmlns="http://www.w3.org/2000/svg">
<g clip-path="url(#clip0_3162_5130)">
<path d="M22.1239 4.81695H17.75V3.91018C17.7504 3.79053 17.7281 3.67197 17.6842 3.56134C17.6403 3.45071 17.5758 3.35019 17.4944 3.26559C17.4129 3.18098 17.3162 3.11395 17.2097 3.06837C17.1032 3.02279 16.9891 2.99956 16.8739 3.00001H8.12609C8.01092 2.99956 7.8968 3.02279 7.79031 3.06837C7.68383 3.11395 7.58707 3.18098 7.50563 3.26559C7.4242 3.35019 7.35968 3.45071 7.3158 3.56134C7.27193 3.67197 7.24957 3.79053 7.25 3.91018V4.81695H2.87609C2.64374 4.81695 2.4209 4.91284 2.2566 5.08353C2.0923 5.25422 2 5.48573 2 5.72712C2 5.96852 2.0923 6.20002 2.2566 6.37072C2.4209 6.54141 2.64374 6.6373 2.87609 6.6373H4.625V20.2729C4.625 20.9962 4.90156 21.6898 5.39384 22.2013C5.88613 22.7127 6.55381 23 7.25 23H17.75C18.4462 23 19.1139 22.7127 19.6062 22.2013C20.0984 21.6898 20.375 20.9962 20.375 20.2729V6.6373H22.1239C22.3563 6.6373 22.5791 6.54141 22.7434 6.37072C22.9077 6.20002 23 5.96852 23 5.72712C23 5.48573 22.9077 5.25422 22.7434 5.08353C22.5791 4.91284 22.3563 4.81695 22.1239 4.81695ZM18.6261 20.2729C18.6252 20.5137 18.5325 20.7443 18.3683 20.9143C18.2041 21.0842 17.9818 21.1797 17.75 21.1797H7.25C7.01821 21.1797 6.79587 21.0842 6.63167 20.9143C6.46746 20.7443 6.37477 20.5137 6.37391 20.2729V6.6373H18.6261V20.2729Z" fill="#252525"/>
<path d="M9.87414 18.4524C10.1059 18.4524 10.3283 18.3569 10.4925 18.187C10.6567 18.017 10.7494 17.7864 10.7502 17.5456V10.271C10.7502 10.0296 10.6579 9.79811 10.4936 9.62742C10.3293 9.45673 10.1065 9.36084 9.87414 9.36084C9.64179 9.36084 9.41895 9.45673 9.25465 9.62742C9.09035 9.79811 8.99805 10.0296 8.99805 10.271V17.5456C8.99891 17.7864 9.0916 18.017 9.25581 18.187C9.42001 18.3569 9.64235 18.4524 9.87414 18.4524Z" fill="#252525"/>
<path d="M15.1241 18.4524C15.3559 18.4524 15.5783 18.3569 15.7425 18.187C15.9067 18.017 15.9994 17.7864 16.0002 17.5456V10.271C16.0002 10.0296 15.9079 9.79811 15.7436 9.62742C15.5793 9.45673 15.3565 9.36084 15.1241 9.36084C14.8918 9.36084 14.6689 9.45673 14.5046 9.62742C14.3403 9.79811 14.248 10.0296 14.248 10.271V17.5456C14.2489 17.7864 14.3416 18.017 14.5058 18.187C14.67 18.3569 14.8924 18.4524 15.1241 18.4524Z" fill="#252525"/>
</g>
<defs>
<clipPath id="clip0_3162_5130">
<rect width="21" height="20" fill="white" transform="translate(2 3)"/>
</clipPath>
</defs>
</svg>
