<svg width="23" height="28" viewBox="0 0 23 28" fill="none" xmlns="http://www.w3.org/2000/svg">
<path d="M18.9212 0.743652H6.62602C5.80834 0.743652 5.02416 1.06847 4.44597 1.64666C3.86779 2.22484 3.54297 3.00903 3.54297 3.8267V20.6601C3.54297 21.4778 3.86779 22.262 4.44597 22.8402C5.02416 23.4184 5.80834 23.7432 6.62602 23.7432H18.9212C19.7389 23.7432 20.5231 23.4184 21.1013 22.8402C21.6794 22.262 22.0043 21.4778 22.0043 20.6601V3.80204C21.9978 2.98864 21.6701 2.21078 21.0926 1.63792C20.5151 1.06506 19.7346 0.743626 18.9212 0.743652ZM20.1544 20.6601C20.1544 20.9872 20.0245 21.3009 19.7932 21.5322C19.562 21.7634 19.2483 21.8934 18.9212 21.8934H6.62602C6.29895 21.8934 5.98527 21.7634 5.754 21.5322C5.52273 21.3009 5.3928 20.9872 5.3928 20.6601V3.80204C5.3928 3.47497 5.52273 3.16129 5.754 2.93002C5.98527 2.69875 6.29895 2.56882 6.62602 2.56882H18.9212C19.2483 2.56882 19.562 2.69875 19.7932 2.93002C20.0245 3.16129 20.1544 3.47497 20.1544 3.80204V20.6601Z" fill="#252525"/>
<path d="M15.363 25.408H3.09867C2.7716 25.408 2.45793 25.2781 2.22666 25.0468C1.99538 24.8155 1.86545 24.5019 1.86545 24.1748V7.35985C1.86545 7.11455 1.76801 6.87929 1.59455 6.70584C1.4211 6.53238 1.18584 6.43494 0.940539 6.43494C0.695237 6.43494 0.459981 6.53238 0.286526 6.70584C0.113071 6.87929 0.015625 7.11455 0.015625 7.35985V24.181C0.015625 24.9986 0.340445 25.7828 0.918629 26.361C1.49681 26.9392 2.281 27.264 3.09867 27.264H15.363C15.6092 27.264 15.8452 27.1662 16.0192 26.9922C16.1933 26.8182 16.291 26.5821 16.291 26.336C16.291 26.0899 16.1933 25.8538 16.0192 25.6798C15.8452 25.5058 15.6092 25.408 15.363 25.408Z" fill="#252525"/>
</svg>
