<svg width="29" height="24" viewBox="0 0 29 24" fill="none" xmlns="http://www.w3.org/2000/svg">
<path d="M2.20934 9.93376C2.29787 10.1483 2.46613 10.3201 2.67873 10.4131C2.89133 10.5061 3.13171 10.5131 3.34934 10.4325L8.98403 8.2772C9.19523 8.18641 9.36315 8.01746 9.45265 7.80571C9.54215 7.59396 9.54631 7.35579 9.46424 7.14105C9.38218 6.9263 9.22025 6.75161 9.01234 6.65351C8.80443 6.55541 8.56664 6.5415 8.34871 6.6147L4.54278 8.06939C8.69903 -0.712178 21.6725 0.392197 24.2315 9.85064C24.2929 10.079 24.4425 10.2736 24.6474 10.3916C24.8523 10.5096 25.0957 10.5414 25.324 10.48C25.5524 10.4186 25.7469 10.269 25.865 10.0641C25.983 9.85923 26.0148 9.61585 25.9534 9.38751C22.9847 -1.54936 8.02215 -2.95061 3.02871 7.12532L1.70465 3.66376C1.60835 3.46394 1.44094 3.30725 1.2352 3.22435C1.02945 3.14145 0.800179 3.13831 0.592242 3.21554C0.384304 3.29277 0.212671 3.44482 0.11093 3.64193C0.00918856 3.83904 -0.0153375 4.06702 0.0421519 4.28126C0.0421519 4.28126 2.18559 9.91595 2.20934 9.93376Z" fill="black"/>
<path d="M27.9609 19.3863L25.9303 14.0782C25.8717 13.9377 25.7801 13.8134 25.6631 13.716C25.5417 13.6157 25.396 13.5492 25.2407 13.5232C25.0854 13.4971 24.9259 13.5124 24.7784 13.5675L19.4703 15.5982C19.2591 15.689 19.0912 15.8579 19.0017 16.0697C18.9122 16.2814 18.908 16.5196 18.9901 16.7343C19.0722 16.9491 19.2341 17.1238 19.442 17.2219C19.6499 17.32 19.8877 17.3339 20.1056 17.2607L23.585 15.9307C19.4287 24.7122 6.45531 23.6079 3.89031 14.1494C3.82905 13.9223 3.6804 13.7286 3.47682 13.6107C3.27324 13.4928 3.03127 13.4602 2.80375 13.5201C2.57591 13.5827 2.38174 13.7323 2.26295 13.9365C2.14416 14.1408 2.11023 14.3835 2.16844 14.6126C5.13719 25.5494 20.1056 26.9507 25.0931 16.8688L26.2806 20.0097C26.3216 20.1201 26.3838 20.2213 26.4639 20.3075C26.5439 20.3938 26.6402 20.4634 26.7471 20.5125C26.8541 20.5616 26.9697 20.5891 27.0873 20.5935C27.2049 20.5979 27.3222 20.5791 27.4325 20.5382C27.5428 20.4972 27.644 20.435 27.7303 20.3549C27.8165 20.2749 27.8862 20.1786 27.9353 20.0717C27.9843 19.9647 28.0119 19.8491 28.0163 19.7315C28.0207 19.6139 28.0019 19.4966 27.9609 19.3863Z" fill="black"/>
</svg>
