<svg width="32" height="32" viewBox="0 0 32 32" fill="none" xmlns="http://www.w3.org/2000/svg">
<path d="M29.2969 2.60007C28.9969 2.40007 28.5969 2.30007 28.2969 2.40007L2.99688 11.7001C2.59688 11.8001 2.29688 12.2001 2.29688 12.6001C2.29688 13.0001 2.59688 13.4001 2.99688 13.5001L13.1969 17.3001L23.1969 7.30007C23.5969 6.90007 24.1969 6.90007 24.5969 7.30007C24.9969 7.70007 24.9969 8.30007 24.5969 8.70007L14.7969 18.5001L21.3969 29.1001C21.5969 29.4001 21.8969 29.6001 22.1969 29.6001C22.2969 29.6001 22.2969 29.6001 22.3969 29.6001C22.7969 29.5001 23.0969 29.2001 23.1969 28.9001L29.3969 3.70007C29.6969 3.30007 29.5969 2.90007 29.2969 2.60007Z" fill="#252525"/>
</svg>
