<svg width="32" height="32" viewBox="0 0 32 32" fill="none" xmlns="http://www.w3.org/2000/svg">
<path d="M29.3008 2.59958C29.0008 2.39958 28.6008 2.29958 28.3008 2.39958L3.00078 11.6996C2.60078 11.7996 2.30078 12.1996 2.30078 12.5996C2.30078 12.9996 2.60078 13.3996 3.00078 13.4996L13.2008 17.2996L23.2008 7.29958C23.6008 6.89958 24.2008 6.89958 24.6008 7.29958C25.0008 7.69958 25.0008 8.29958 24.6008 8.69958L14.8008 18.4996L21.4008 29.0996C21.6008 29.3996 21.9008 29.5996 22.2008 29.5996C22.3008 29.5996 22.3008 29.5996 22.4008 29.5996C22.8008 29.4996 23.1008 29.1996 23.2008 28.8996L29.4008 3.69958C29.7008 3.29958 29.6008 2.89958 29.3008 2.59958Z" fill="#AAADB3"/>
</svg>
