<svg width="12" height="16" viewBox="0 0 12 16" fill="none" xmlns="http://www.w3.org/2000/svg">
<g clip-path="url(#clip0_2551_5195)">
<path fill-rule="evenodd" clip-rule="evenodd" d="M9.38182 7.76C10.44 6.99429 11.1818 5.73714 11.1818 4.57143C11.1818 1.98857 9.27273 0 6.81818 0H0V16H7.68C9.96 16 11.7273 14.0571 11.7273 11.6686C11.7273 9.93143 10.7891 8.44571 9.38182 7.76ZM3.27273 2.85714H6.54545C7.45091 2.85714 8.18182 3.62286 8.18182 4.57143C8.18182 5.52 7.45091 6.28571 6.54545 6.28571H3.27273V2.85714ZM7.09091 13.1429H3.27273V9.71429H7.09091C7.99636 9.71429 8.72727 10.48 8.72727 11.4286C8.72727 12.3771 7.99636 13.1429 7.09091 13.1429Z" fill="white"/>
</g>
<defs>
<clipPath id="clip0_2551_5195">
<rect width="12" height="16" fill="white"/>
</clipPath>
</defs>
</svg>
