<?xml version="1.0" encoding="UTF-8"?>
<svg xmlns="http://www.w3.org/2000/svg" xmlns:xlink="http://www.w3.org/1999/xlink" width="20px" height="20px" fill="white" viewBox="0 0 20 20" version="1.1">
<g id="surface1">
<path style=" stroke:none;fill-rule:nonzero;fill-opacity:1;" d="M 19.667969 15.605469 L 17.1875 15.605469 L 17.1875 13.140625 C 17.1875 12.960938 17.039062 12.8125 16.859375 12.8125 C 16.675781 12.8125 16.527344 12.960938 16.527344 13.140625 L 16.527344 15.605469 L 14.046875 15.605469 C 13.867188 15.605469 13.71875 15.753906 13.71875 15.933594 C 13.71875 16.117188 13.867188 16.265625 14.046875 16.265625 L 16.527344 16.265625 L 16.527344 18.761719 C 16.527344 18.945312 16.675781 19.09375 16.859375 19.09375 C 17.039062 19.09375 17.1875 18.945312 17.1875 18.761719 L 17.1875 16.265625 L 19.667969 16.265625 C 19.851562 16.265625 20 16.117188 20 15.933594 C 20 15.753906 19.851562 15.605469 19.667969 15.605469 Z M 19.667969 15.605469 "/>
<path style=" stroke:none;fill-rule:nonzero;fill-opacity:1;" d="M 13.914062 10.511719 C 14.410156 10.660156 14.875 10.894531 15.238281 11.222656 C 15.371094 11.339844 15.585938 11.324219 15.703125 11.191406 C 15.816406 11.058594 15.800781 10.84375 15.667969 10.726562 C 15.222656 10.332031 14.675781 10.050781 14.066406 9.882812 L 13.867188 9.835938 C 13.550781 9.753906 13.203125 9.867188 13.007812 10.097656 C 12.277344 10.925781 11.351562 10.992188 10.378906 10.992188 C 9.417969 10.992188 8.492188 10.925781 7.765625 10.097656 C 7.550781 9.851562 7.21875 9.753906 6.921875 9.835938 L 6.722656 9.882812 C 5.351562 10.246094 4.261719 11.304688 3.863281 12.679688 L 3.582031 13.636719 C 3.566406 13.636719 3.550781 13.636719 3.535156 13.636719 L 0.804688 13.636719 C 0.738281 13.636719 0.707031 13.605469 0.691406 13.585938 C 0.671875 13.570312 0.640625 13.523438 0.65625 13.457031 L 1.203125 11.519531 C 1.664062 9.984375 2.640625 9.488281 4.394531 9.074219 C 4.425781 9.074219 4.441406 9.058594 4.476562 9.042969 C 4.589844 9.125 4.722656 9.207031 4.839844 9.273438 C 4.890625 9.304688 4.9375 9.304688 4.988281 9.304688 C 5.105469 9.304688 5.21875 9.238281 5.285156 9.125 C 5.367188 8.957031 5.300781 8.761719 5.152344 8.675781 C 4.179688 8.179688 3.46875 6.742188 3.46875 5.273438 C 3.46875 3.933594 4.542969 2.859375 5.882812 2.859375 C 6.277344 2.859375 6.640625 2.957031 7.003906 3.140625 C 6.808594 3.601562 6.691406 4.113281 6.691406 4.644531 C 6.691406 7.46875 8.394531 9.851562 10.425781 9.851562 C 12.410156 9.851562 14.164062 7.421875 14.164062 4.644531 C 14.164062 2.578125 12.492188 0.90625 10.425781 0.90625 C 9.136719 0.90625 7.996094 1.566406 7.320312 2.558594 L 7.304688 2.542969 C 6.855469 2.3125 6.378906 2.195312 5.882812 2.195312 C 4.179688 2.195312 2.804688 3.570312 2.804688 5.273438 C 2.804688 6.511719 3.234375 7.703125 3.914062 8.496094 C 2.410156 8.875 1.152344 9.4375 0.574219 11.324219 L 0.0273438 13.273438 C -0.0390625 13.523438 0.0117188 13.785156 0.175781 13.984375 C 0.324219 14.183594 0.558594 14.296875 0.804688 14.296875 L 3.382812 14.296875 L 3.152344 15.074219 C 3.070312 15.355469 3.121094 15.652344 3.300781 15.886719 C 3.484375 16.117188 3.765625 16.265625 4.0625 16.265625 L 11.074219 16.265625 C 11.253906 16.265625 11.402344 16.117188 11.402344 15.933594 C 11.402344 15.753906 11.253906 15.605469 11.074219 15.605469 L 4.0625 15.605469 C 3.980469 15.605469 3.898438 15.570312 3.847656 15.488281 C 3.8125 15.457031 3.78125 15.375 3.8125 15.257812 L 4.507812 12.84375 C 4.839844 11.703125 5.75 10.808594 6.90625 10.511719 L 7.105469 10.464844 C 7.171875 10.445312 7.238281 10.480469 7.285156 10.527344 C 8.195312 11.570312 9.320312 11.652344 10.410156 11.652344 C 11.503906 11.652344 12.625 11.570312 13.535156 10.527344 C 13.535156 10.527344 13.535156 10.511719 13.550781 10.511719 C 13.585938 10.480469 13.667969 10.445312 13.71875 10.464844 Z M 10.425781 1.566406 C 11.800781 1.566406 12.957031 2.476562 13.355469 3.71875 C 12.773438 3.832031 12.164062 3.601562 11.800781 3.105469 C 11.683594 2.957031 11.484375 2.925781 11.335938 3.039062 C 11.269531 3.089844 11.238281 3.140625 11.222656 3.203125 C 11.203125 3.222656 11.203125 3.238281 11.1875 3.253906 C 10.726562 4.195312 9.171875 4.59375 7.386719 4.246094 C 7.582031 2.742188 8.875 1.566406 10.425781 1.566406 Z M 8.625 5.023438 C 9.949219 5.023438 11.039062 4.609375 11.601562 3.832031 C 12.015625 4.195312 12.527344 4.394531 13.074219 4.394531 C 13.203125 4.394531 13.355469 4.378906 13.484375 4.347656 C 13.503906 4.445312 13.503906 4.527344 13.503906 4.625 C 13.503906 7.058594 12.0625 9.191406 10.425781 9.191406 C 8.855469 9.191406 7.453125 7.222656 7.351562 4.90625 C 7.796875 4.992188 8.210938 5.023438 8.625 5.023438 Z M 8.625 5.023438 "/>
</g>
</svg>
