<?xml version="1.0" encoding="UTF-8"?>
<svg xmlns="http://www.w3.org/2000/svg" xmlns:xlink="http://www.w3.org/1999/xlink" width="20px" height="20px" fill="white" viewBox="0 0 20 20" version="1.1">
<g id="surface1">
<path style=" stroke:none;fill-rule:nonzero;fill-opacity:1;" d="M 16.867188 2.855469 L 15.628906 2.855469 C 15.601562 2.855469 15.578125 2.867188 15.554688 2.871094 L 15.554688 1.570312 C 15.554688 0.703125 14.835938 0 13.949219 0 L 3.191406 0 C 2.308594 0 1.585938 0.703125 1.585938 1.570312 L 1.585938 16.207031 C 1.585938 17.074219 2.308594 17.777344 3.191406 17.777344 L 5.078125 17.777344 L 5.078125 18.488281 C 5.078125 19.320312 5.773438 20 6.625 20 L 16.867188 20 C 17.71875 20 18.414062 19.320312 18.414062 18.488281 L 18.414062 4.371094 C 18.414062 3.535156 17.71875 2.855469 16.867188 2.855469 Z M 2.222656 16.207031 L 2.222656 1.570312 C 2.222656 1.054688 2.65625 0.636719 3.191406 0.636719 L 13.949219 0.636719 C 14.484375 0.636719 14.921875 1.054688 14.921875 1.570312 L 14.921875 16.207031 C 14.921875 16.722656 14.484375 17.144531 13.949219 17.144531 L 3.191406 17.144531 C 2.65625 17.144531 2.222656 16.722656 2.222656 16.207031 Z M 17.777344 18.488281 C 17.777344 18.972656 17.371094 19.363281 16.867188 19.363281 L 6.625 19.363281 C 6.121094 19.363281 5.714844 18.972656 5.714844 18.488281 L 5.714844 17.777344 L 13.949219 17.777344 C 14.835938 17.777344 15.554688 17.074219 15.554688 16.207031 L 15.554688 3.476562 C 15.578125 3.484375 15.601562 3.492188 15.628906 3.492188 L 16.867188 3.492188 C 17.371094 3.492188 17.777344 3.886719 17.777344 4.371094 Z M 17.777344 18.488281 "/>
<path style=" stroke:none;fill-rule:nonzero;fill-opacity:1;" d="M 12.0625 4.128906 L 5.078125 4.128906 C 4.902344 4.128906 4.761719 4.269531 4.761719 4.445312 C 4.761719 4.621094 4.902344 4.761719 5.078125 4.761719 L 12.0625 4.761719 C 12.238281 4.761719 12.382812 4.621094 12.382812 4.445312 C 12.382812 4.269531 12.238281 4.128906 12.0625 4.128906 Z M 12.0625 4.128906 "/>
<path style=" stroke:none;fill-rule:nonzero;fill-opacity:1;" d="M 12.0625 6.667969 L 5.078125 6.667969 C 4.902344 6.667969 4.761719 6.808594 4.761719 6.984375 C 4.761719 7.160156 4.902344 7.300781 5.078125 7.300781 L 12.0625 7.300781 C 12.238281 7.300781 12.382812 7.160156 12.382812 6.984375 C 12.382812 6.808594 12.238281 6.667969 12.0625 6.667969 Z M 12.0625 6.667969 "/>
<path style=" stroke:none;fill-rule:nonzero;fill-opacity:1;" d="M 12.0625 9.207031 L 5.078125 9.207031 C 4.902344 9.207031 4.761719 9.347656 4.761719 9.523438 C 4.761719 9.699219 4.902344 9.839844 5.078125 9.839844 L 12.0625 9.839844 C 12.238281 9.839844 12.382812 9.699219 12.382812 9.523438 C 12.382812 9.347656 12.238281 9.207031 12.0625 9.207031 Z M 12.0625 9.207031 "/>
<path style=" stroke:none;fill-rule:nonzero;fill-opacity:1;" d="M 8.890625 11.746094 L 5.078125 11.746094 C 4.902344 11.746094 4.761719 11.886719 4.761719 12.0625 C 4.761719 12.238281 4.902344 12.382812 5.078125 12.382812 L 8.890625 12.382812 C 9.0625 12.382812 9.207031 12.238281 9.207031 12.0625 C 9.207031 11.886719 9.0625 11.746094 8.890625 11.746094 Z M 8.890625 11.746094 "/>
</g>
</svg>
