<?xml version="1.0" encoding="UTF-8"?>
<svg xmlns="http://www.w3.org/2000/svg" xmlns:xlink="http://www.w3.org/1999/xlink" fill="white" width="20px" height="20px" viewBox="0 0 20 20" version="1.1">
<g id="surface1">
<path style=" stroke:none;fill-rule:nonzero;fill-opacity:1;" d="M 15.457031 9.8125 L 15.746094 6.367188 L 16.246094 6.367188 C 16.628906 6.367188 16.9375 6.058594 16.9375 5.679688 L 16.9375 4.421875 C 16.9375 3.238281 15.972656 2.273438 14.789062 2.273438 L 12.390625 2.273438 L 12.390625 1.957031 C 12.390625 0.878906 11.515625 0 10.4375 0 L 8.429688 0 C 7.347656 0 6.472656 0.878906 6.472656 1.957031 L 6.472656 2.273438 L 4.078125 2.273438 C 2.890625 2.273438 1.929688 3.238281 1.929688 4.421875 L 1.929688 5.679688 C 1.929688 6.058594 2.234375 6.367188 2.617188 6.367188 L 3.117188 6.367188 L 4.054688 17.597656 C 4.167969 18.945312 5.3125 20 6.667969 20 L 12.195312 20 C 13.535156 20 14.667969 18.96875 14.804688 17.644531 C 16.667969 17.257812 18.070312 15.605469 18.070312 13.632812 C 18.074219 11.894531 16.984375 10.410156 15.457031 9.8125 Z M 7.847656 1.957031 C 7.847656 1.636719 8.109375 1.378906 8.429688 1.378906 L 10.4375 1.378906 C 10.753906 1.378906 11.015625 1.636719 11.015625 1.957031 L 11.015625 2.273438 L 7.847656 2.273438 Z M 3.304688 4.992188 L 3.304688 4.421875 C 3.304688 3.996094 3.652344 3.652344 4.078125 3.652344 L 14.789062 3.652344 C 15.214844 3.652344 15.558594 3.996094 15.558594 4.421875 L 15.558594 4.992188 Z M 12.195312 18.621094 L 6.667969 18.621094 C 6.023438 18.621094 5.480469 18.121094 5.425781 17.480469 L 4.5 6.367188 L 14.363281 6.367188 L 14.097656 9.539062 C 14.058594 9.539062 14.015625 9.535156 13.976562 9.535156 C 11.71875 9.535156 9.878906 11.371094 9.878906 13.632812 C 9.878906 15.695312 11.414062 17.40625 13.402344 17.6875 C 13.261719 18.226562 12.769531 18.621094 12.195312 18.621094 Z M 13.976562 16.351562 C 12.476562 16.351562 11.257812 15.132812 11.257812 13.632812 C 11.257812 12.132812 12.476562 10.914062 13.976562 10.914062 C 15.476562 10.914062 16.695312 12.132812 16.695312 13.632812 C 16.695312 15.132812 15.476562 16.351562 13.976562 16.351562 Z M 13.976562 16.351562 "/>
<path style=" stroke:none;fill-rule:nonzero;fill-opacity:1;" d="M 14.949219 13.632812 L 15.597656 12.984375 C 15.867188 12.714844 15.867188 12.277344 15.597656 12.007812 C 15.328125 11.738281 14.894531 11.738281 14.625 12.007812 L 13.976562 12.65625 L 13.328125 12.007812 C 13.058594 11.738281 12.621094 11.738281 12.351562 12.007812 C 12.085938 12.277344 12.085938 12.714844 12.351562 12.984375 L 13.003906 13.632812 L 12.351562 14.28125 C 12.085938 14.550781 12.085938 14.984375 12.351562 15.253906 C 12.488281 15.390625 12.664062 15.457031 12.839844 15.457031 C 13.015625 15.457031 13.191406 15.390625 13.328125 15.253906 L 13.976562 14.605469 L 14.625 15.253906 C 14.757812 15.390625 14.9375 15.457031 15.113281 15.457031 C 15.289062 15.457031 15.464844 15.390625 15.597656 15.253906 C 15.867188 14.984375 15.867188 14.550781 15.597656 14.28125 Z M 14.949219 13.632812 "/>
</g>
</svg>
