<?xml version="1.0" encoding="UTF-8"?>
<svg xmlns="http://www.w3.org/2000/svg" xmlns:xlink="http://www.w3.org/1999/xlink" fill="white" width="20px" height="20px" viewBox="0 0 20 20" version="1.1">
<g id="surface1">
<path style=" stroke:none;fill-rule:nonzero;fill-opacity:1;" d="M 7.472656 9.894531 L 5.683594 9.894531 L 5.683594 8.84375 L 7.050781 8.84375 C 7.226562 8.84375 7.367188 8.699219 7.367188 8.527344 C 7.367188 8.351562 7.226562 8.210938 7.050781 8.210938 L 5.683594 8.210938 L 5.683594 7.15625 L 7.472656 7.15625 C 7.648438 7.15625 7.789062 7.015625 7.789062 6.84375 C 7.789062 6.667969 7.648438 6.527344 7.472656 6.527344 L 5.367188 6.527344 C 5.195312 6.527344 5.050781 6.667969 5.050781 6.84375 L 5.050781 8.210938 L 3.605469 8.210938 L 3.90625 7.90625 C 4.03125 7.785156 4.03125 7.585938 3.90625 7.460938 C 3.785156 7.335938 3.585938 7.335938 3.460938 7.460938 L 2.617188 8.304688 C 2.609375 8.3125 2.597656 8.324219 2.589844 8.335938 C 2.589844 8.339844 2.585938 8.339844 2.585938 8.34375 C 2.570312 8.367188 2.554688 8.390625 2.546875 8.417969 C 2.546875 8.417969 2.542969 8.421875 2.542969 8.425781 C 2.539062 8.4375 2.535156 8.449219 2.53125 8.464844 C 2.53125 8.480469 2.527344 8.492188 2.527344 8.503906 C 2.527344 8.507812 2.527344 8.511719 2.527344 8.515625 C 2.527344 8.527344 2.527344 8.542969 2.527344 8.554688 C 2.527344 8.570312 2.53125 8.585938 2.535156 8.597656 C 2.535156 8.601562 2.535156 8.601562 2.535156 8.605469 C 2.539062 8.621094 2.546875 8.632812 2.550781 8.648438 C 2.554688 8.660156 2.5625 8.671875 2.570312 8.683594 C 2.570312 8.6875 2.574219 8.691406 2.574219 8.691406 C 2.582031 8.703125 2.589844 8.714844 2.597656 8.726562 C 2.597656 8.726562 2.601562 8.730469 2.601562 8.730469 C 2.605469 8.738281 2.613281 8.742188 2.617188 8.75 L 3.460938 9.589844 C 3.523438 9.652344 3.601562 9.683594 3.683594 9.683594 C 3.765625 9.683594 3.847656 9.652344 3.90625 9.589844 C 4.03125 9.46875 4.03125 9.269531 3.90625 9.144531 L 3.605469 8.84375 L 5.054688 8.84375 L 5.054688 10.210938 C 5.054688 10.386719 5.195312 10.527344 5.367188 10.527344 L 7.472656 10.527344 C 7.648438 10.527344 7.789062 10.386719 7.789062 10.210938 C 7.789062 10.035156 7.648438 9.894531 7.472656 9.894531 Z M 7.472656 9.894531 "/>
<path style=" stroke:none;fill-rule:nonzero;fill-opacity:1;" d="M 10.816406 8.527344 L 11.9375 7.03125 C 12.042969 6.890625 12.011719 6.695312 11.875 6.589844 C 11.734375 6.484375 11.535156 6.511719 11.429688 6.652344 L 10.421875 8 L 9.410156 6.652344 C 9.304688 6.511719 9.109375 6.484375 8.96875 6.589844 C 8.828125 6.695312 8.800781 6.890625 8.90625 7.03125 L 10.027344 8.527344 L 8.90625 10.019531 C 8.800781 10.160156 8.828125 10.359375 8.96875 10.464844 C 9.023438 10.503906 9.089844 10.527344 9.15625 10.527344 C 9.253906 10.527344 9.347656 10.484375 9.410156 10.398438 L 10.421875 9.050781 L 11.429688 10.398438 C 11.492188 10.484375 11.589844 10.527344 11.683594 10.527344 C 11.75 10.527344 11.816406 10.503906 11.875 10.464844 C 12.011719 10.359375 12.042969 10.160156 11.9375 10.019531 Z M 10.816406 8.527344 "/>
<path style=" stroke:none;fill-rule:nonzero;fill-opacity:1;" d="M 13.367188 6.527344 C 13.195312 6.527344 13.050781 6.667969 13.050781 6.84375 L 13.050781 10.210938 C 13.050781 10.386719 13.195312 10.527344 13.367188 10.527344 C 13.542969 10.527344 13.683594 10.386719 13.683594 10.210938 L 13.683594 6.84375 C 13.683594 6.667969 13.542969 6.527344 13.367188 6.527344 Z M 13.367188 6.527344 "/>
<path style=" stroke:none;fill-rule:nonzero;fill-opacity:1;" d="M 17.15625 6.527344 L 15.472656 6.527344 C 15.300781 6.527344 15.15625 6.667969 15.15625 6.84375 C 15.15625 7.015625 15.300781 7.15625 15.472656 7.15625 L 16 7.15625 L 16 10.210938 C 16 10.386719 16.140625 10.527344 16.316406 10.527344 C 16.488281 10.527344 16.632812 10.386719 16.632812 10.210938 L 16.632812 7.15625 L 17.15625 7.15625 C 17.332031 7.15625 17.472656 7.015625 17.472656 6.84375 C 17.472656 6.667969 17.332031 6.527344 17.15625 6.527344 Z M 17.15625 6.527344 "/>
<path style=" stroke:none;fill-rule:nonzero;fill-opacity:1;" d="M 19.683594 3.578125 L 13.261719 3.578125 L 13.261719 1.789062 C 13.261719 1.613281 13.121094 1.472656 12.949219 1.472656 L 9.15625 1.472656 C 8.984375 1.472656 8.84375 1.613281 8.84375 1.789062 L 8.84375 3.578125 L 3.261719 3.578125 C 3.15625 3.578125 3.054688 3.632812 2.996094 3.726562 L 0.0507812 8.355469 C -0.015625 8.460938 -0.015625 8.59375 0.0507812 8.695312 L 2.996094 13.328125 C 3.054688 13.417969 3.15625 13.472656 3.261719 13.472656 L 8.84375 13.472656 L 8.84375 18.210938 C 8.84375 18.386719 8.984375 18.527344 9.15625 18.527344 L 12.949219 18.527344 C 13.121094 18.527344 13.261719 18.386719 13.261719 18.210938 L 13.261719 13.472656 L 19.683594 13.472656 C 19.859375 13.472656 20 13.332031 20 13.15625 L 20 3.894531 C 20 3.71875 19.859375 3.578125 19.683594 3.578125 Z M 12.632812 17.894531 L 9.472656 17.894531 L 9.472656 13.472656 L 11.367188 13.472656 L 11.367188 14.84375 C 11.367188 15.015625 11.511719 15.15625 11.683594 15.15625 C 11.859375 15.15625 12 15.015625 12 14.84375 L 12 13.472656 L 12.632812 13.472656 Z M 19.367188 12.84375 L 3.4375 12.84375 L 0.691406 8.527344 L 3.4375 4.210938 L 9.9375 4.210938 C 10.109375 4.210938 10.253906 4.070312 10.253906 3.894531 C 10.253906 3.71875 10.109375 3.578125 9.9375 3.578125 L 9.472656 3.578125 L 9.472656 2.105469 L 12.632812 2.105469 L 12.632812 3.578125 L 11.1875 3.578125 C 11.011719 3.578125 10.871094 3.71875 10.871094 3.894531 C 10.871094 4.070312 11.011719 4.210938 11.1875 4.210938 L 19.367188 4.210938 Z M 19.367188 12.84375 "/>
</g>
</svg>
