<?xml version="1.0" encoding="UTF-8"?>
<svg xmlns="http://www.w3.org/2000/svg" xmlns:xlink="http://www.w3.org/1999/xlink" fill="white" width="20px" height="20px" viewBox="0 0 20 20" version="1.1">
<g id="surface1">
<path style=" stroke:none;fill-rule:nonzero;fill-opacity:1;" d="M 19.492188 19.988281 C 19.773438 19.988281 20 19.761719 20 19.484375 L 20 4.675781 C 20 4.527344 19.933594 4.390625 19.824219 4.292969 L 14.9375 0.117188 C 14.929688 0.109375 14.921875 0.105469 14.914062 0.101562 C 14.902344 0.09375 14.894531 0.0859375 14.878906 0.0742188 C 14.863281 0.0664062 14.851562 0.0585938 14.835938 0.0507812 C 14.824219 0.046875 14.8125 0.0390625 14.796875 0.0351562 C 14.78125 0.0273438 14.761719 0.0234375 14.746094 0.0195312 C 14.734375 0.015625 14.71875 0.0117188 14.707031 0.0117188 C 14.675781 0.0078125 14.644531 0.00390625 14.613281 0.00390625 L 0.507812 0.00390625 C 0.226562 0.00390625 0 0.226562 0 0.507812 L 0 19.492188 C 0 19.773438 0.226562 19.996094 0.507812 19.996094 L 19.492188 19.996094 Z M 15.824219 18.980469 L 4.175781 18.980469 L 4.175781 11.40625 C 4.175781 11.253906 4.300781 11.132812 4.449219 11.132812 L 15.550781 11.132812 C 15.703125 11.132812 15.824219 11.257812 15.824219 11.40625 Z M 6.660156 1.007812 L 14.101562 1.007812 L 14.101562 6.265625 C 14.101562 6.296875 14.078125 6.324219 14.046875 6.324219 L 6.71875 6.324219 C 6.6875 6.324219 6.664062 6.292969 6.664062 6.265625 L 6.664062 1.007812 Z M 1.011719 1.007812 L 5.65625 1.007812 L 5.65625 6.265625 C 5.65625 6.855469 6.132812 7.332031 6.71875 7.332031 L 14.046875 7.332031 C 14.632812 7.332031 15.109375 6.855469 15.109375 6.265625 L 15.109375 1.59375 L 18.988281 4.910156 L 18.988281 18.980469 L 16.832031 18.980469 L 16.832031 11.40625 C 16.832031 10.699219 16.253906 10.125 15.550781 10.125 L 4.449219 10.125 C 3.742188 10.125 3.167969 10.703125 3.167969 11.40625 L 3.167969 18.984375 L 1.011719 18.984375 Z M 1.011719 1.007812 "/>
<path style=" stroke:none;fill-rule:nonzero;fill-opacity:1;" d="M 9.359375 3.195312 L 11.570312 3.195312 L 11.570312 4.535156 C 11.570312 4.816406 11.796875 5.042969 12.078125 5.042969 C 12.359375 5.042969 12.585938 4.816406 12.585938 4.535156 L 12.585938 2.695312 C 12.585938 2.414062 12.359375 2.1875 12.078125 2.1875 L 9.359375 2.1875 C 9.078125 2.1875 8.851562 2.414062 8.851562 2.695312 C 8.851562 2.972656 9.082031 3.195312 9.359375 3.195312 Z M 9.359375 3.195312 "/>
<path style=" stroke:none;fill-rule:nonzero;fill-opacity:1;" d="M 12.53125 13.285156 L 7.46875 13.285156 C 7.1875 13.285156 6.964844 13.511719 6.964844 13.792969 C 6.964844 14.070312 7.1875 14.296875 7.46875 14.296875 L 12.53125 14.296875 C 12.8125 14.296875 13.035156 14.070312 13.035156 13.792969 C 13.035156 13.511719 12.8125 13.285156 12.53125 13.285156 Z M 12.53125 13.285156 "/>
<path style=" stroke:none;fill-rule:nonzero;fill-opacity:1;" d="M 12.53125 15.957031 L 7.46875 15.957031 C 7.1875 15.957031 6.964844 16.183594 6.964844 16.464844 C 6.964844 16.742188 7.1875 16.96875 7.46875 16.96875 L 12.53125 16.96875 C 12.8125 16.96875 13.035156 16.742188 13.035156 16.464844 C 13.035156 16.183594 12.8125 15.957031 12.53125 15.957031 Z M 12.53125 15.957031 "/>
</g>
</svg>
