<svg width="42" height="42" viewBox="0 0 42 42" fill="none" xmlns="http://www.w3.org/2000/svg">
<rect width="42" height="42" rx="21" fill="white"/>
<path fill-rule="evenodd" clip-rule="evenodd" d="M11.072 15C10.59 15 10.1992 15.3908 10.1992 15.8728V26.3465C10.1992 26.8286 10.59 27.2193 11.072 27.2193H24.1642C24.6462 27.2193 25.037 26.8286 25.037 26.3465V15.8728C25.037 15.3908 24.6462 15 24.1642 15H11.072ZM26.6301 20.4603C26.2439 20.8071 26.2439 21.4122 26.6301 21.759L30.3425 25.0931C30.9044 25.5977 31.7985 25.199 31.7985 24.4437V17.7755C31.7985 17.0203 30.9044 16.6215 30.3425 17.1261L26.6301 20.4603Z" fill="#AAADB3"/>
<rect width="2" height="32.0427" rx="1" transform="matrix(-0.707107 0.707107 0.707107 0.707107 10.418 9)" fill="#AAADB3"/>
</svg>
