<svg width="42" height="42" viewBox="0 0 42 42" fill="none" xmlns="http://www.w3.org/2000/svg">
<rect width="42" height="42" rx="21" fill="white"/>
<path d="M20.9991 24.8074C22.0463 24.8074 22.9425 24.4346 23.6882 23.6892C24.4337 22.9439 24.8065 22.0472 24.8065 21V14.9078C24.8065 13.8607 24.434 12.9644 23.6882 12.2186C22.9425 11.4731 22.0463 11.1 20.9991 11.1C19.952 11.1 19.0556 11.4731 18.3099 12.2186C17.5642 12.9642 17.1914 13.8607 17.1914 14.9078V21C17.1914 22.0471 17.5644 22.9439 18.3099 23.6892C19.0555 24.4346 19.952 24.8074 20.9991 24.8074Z" fill="#AAADB3"/>
<path d="M27.626 18.9415C27.4757 18.7908 27.2968 18.7154 27.0905 18.7154C26.8845 18.7154 26.706 18.7908 26.5551 18.9415C26.4045 19.0922 26.3292 19.2707 26.3292 19.4769V21C26.3292 22.4676 25.8075 23.7229 24.7643 24.766C23.7215 25.8092 22.466 26.3308 20.9984 26.3308C19.5308 26.3308 18.2755 25.8092 17.2323 24.766C16.1892 23.7232 15.6677 22.4677 15.6677 21V19.4769C15.6677 19.2707 15.5923 19.0922 15.4416 18.9415C15.2909 18.7908 15.1126 18.7154 14.9062 18.7154C14.6998 18.7154 14.5213 18.7908 14.3707 18.9415C14.2199 19.0922 14.1445 19.2707 14.1445 19.4769V21C14.1445 22.7532 14.7297 24.2783 15.8996 25.5751C17.0696 26.872 18.5153 27.6157 20.2368 27.8059V29.3768H17.1907C16.9845 29.3768 16.806 29.4522 16.6553 29.603C16.5046 29.7536 16.4292 29.9322 16.4292 30.1384C16.4292 30.3443 16.5046 30.5232 16.6553 30.6738C16.806 30.8245 16.9845 30.9001 17.1907 30.9001H24.8059C25.0121 30.9001 25.1908 30.8245 25.3413 30.6738C25.4922 30.5233 25.5676 30.3444 25.5676 30.1384C25.5676 29.9322 25.4922 29.7537 25.3413 29.603C25.1908 29.4522 25.0121 29.3768 24.8059 29.3768H21.7601V27.8059C23.4813 27.6157 24.9269 26.872 26.097 25.5751C27.2672 24.2783 27.8525 22.7532 27.8525 21V19.4769C27.8525 19.2707 27.7769 19.0924 27.626 18.9415Z" fill="#AAADB3"/>
<rect width="2" height="32.0427" rx="1" transform="matrix(-0.707107 0.707107 0.707107 0.707107 10.4141 9)" fill="#AAADB3"/>
</svg>
